#N canvas 54 74 926 636 10;
#X declare -path else;
#X declare -path ./abs;
#X obj 790 21 declare -path else;
#X obj 108 456 dac~ 1 2;
#X obj 49 12 adc~ 1 2;
#X text 602 497 Parameters Automatable;
#X obj 617 520 param.change;
#N canvas 598 36 538 300 set.parameters 0;
#X obj 111 62 param.set 1;
#X obj 101 40 r \$0-delay_rcv;
#X obj 203 40 r \$0-decay_rcv;
#X obj 213 63 param.set 2;
#X obj 310 40 r \$0-Mix_delay_rcv;
#X obj 320 63 param.set 3;
#X obj 48 155 param.set 4;
#X obj 150 156 param.set 5;
#X obj 257 156 param.set 6;
#X obj 377 156 param.set 7;
#X obj 38 133 r \$0-freq_1_rcv;
#X obj 140 133 r \$0-balance_rcv;
#X obj 247 133 r \$0-freq_2_rcv;
#X obj 367 133 r \$0-Mix_ring_mod_rcv;
#X obj 81 242 param.set 8;
#X obj 213 243 param.set 9;
#X obj 340 243 param.set 10;
#X obj 71 220 r \$0-decimation_rcv;
#X obj 330 220 r \$0-Mix_decimator_rcv;
#X obj 203 220 r \$0-rounding_rcv;
#X connect 1 0 0 0;
#X connect 2 0 3 0;
#X connect 4 0 5 0;
#X connect 10 0 6 0;
#X connect 11 0 7 0;
#X connect 12 0 8 0;
#X connect 13 0 9 0;
#X connect 17 0 14 0;
#X connect 18 0 16 0;
#X connect 19 0 15 0;
#X restore 617 542 pd set.parameters;
#X obj 785 41 declare -path ./abs;
#N canvas 418 259 597 392 get.parameters 0;
#X obj 101 70 s \$0-delay_rcv;
#X obj 203 70 s \$0-decay_rcv;
#X obj 310 70 s \$0-Mix_delay_rcv;
#X obj 38 193 s \$0-freq_1_rcv;
#X obj 140 193 s \$0-balance_rcv;
#X obj 247 193 s \$0-freq_2_rcv;
#X obj 367 193 s \$0-Mix_ring_mod_rcv;
#X obj 330 320 s \$0-Mix_decimator_rcv;
#X obj 203 320 s \$0-rounding_rcv;
#X obj 71 320 s \$0-decimation_rcv;
#X obj 111 22 param.get 1;
#X obj 213 23 param.get 2;
#X obj 320 23 param.get 3;
#X obj 377 136 param.get 7;
#X obj 257 136 param.get 6;
#X obj 150 136 param.get 5;
#X obj 48 135 param.get 4;
#X obj 81 262 param.get 8;
#X obj 213 263 param.get 9;
#X obj 340 263 param.get 10;
#X msg 111 43 set \$1;
#X msg 213 44 set \$1;
#X msg 320 44 set \$1;
#X msg 48 156 set \$1;
#X msg 150 156 set \$1;
#X msg 257 156 set \$1;
#X msg 377 155 set \$1;
#X msg 81 282 set \$1;
#X msg 213 283 set \$1;
#X msg 340 284 set \$1;
#X connect 10 0 20 0;
#X connect 11 0 21 0;
#X connect 12 0 22 0;
#X connect 13 0 26 0;
#X connect 14 0 25 0;
#X connect 15 0 24 0;
#X connect 16 0 23 0;
#X connect 17 0 27 0;
#X connect 18 0 28 0;
#X connect 19 0 29 0;
#X connect 20 0 0 0;
#X connect 21 0 1 0;
#X connect 22 0 2 0;
#X connect 23 0 3 0;
#X connect 24 0 4 0;
#X connect 25 0 5 0;
#X connect 26 0 6 0;
#X connect 27 0 9 0;
#X connect 28 0 8 0;
#X connect 29 0 7 0;
#X restore 617 563 pd get.parameters;
#X obj 49 105 Delay;
#X obj 194 28 r \$0-delay_rcv;
#X obj 300 29 r \$0-decay_rcv;
#X obj 407 29 r \$0-Mix_delay_rcv;
#X text 73 77 LiVoAUDistortion;
#X obj 49 192 Ring_Modulator;
#X obj 297 97 r \$0-freq_1_rcv;
#X obj 399 97 r \$0-balance_rcv;
#X obj 506 97 r \$0-freq_2_rcv;
#X obj 626 97 r \$0-Mix_ring_mod_rcv;
#X obj 49 276 Decimator;
#X obj 415 235 r \$0-decimation_rcv;
#X obj 674 235 r \$0-Mix_decimator_rcv;
#X obj 547 235 r \$0-rounding_rcv;
#X connect 2 0 8 0;
#X connect 2 1 8 1;
#X connect 8 0 13 0;
#X connect 8 1 13 1;
#X connect 9 0 8 2;
#X connect 10 0 8 3;
#X connect 11 0 8 4;
#X connect 13 0 18 0;
#X connect 13 1 18 1;
#X connect 14 0 13 2;
#X connect 15 0 13 3;
#X connect 16 0 13 4;
#X connect 17 0 13 5;
#X connect 18 0 1 0;
#X connect 18 1 1 1;
#X connect 19 0 18 2;
#X connect 20 0 18 4;
#X connect 21 0 18 3;
#X coords 0 -1 1 1 350 300 1 35 70;
