#N canvas 623 242 532 364 10;
#X obj 26 17 inlet~;
#X obj 27 332 outlet~;
#X obj 105 196 crusher~;
#X floatatom 170 80 5 0 100 1 % - -;
#X obj 173 61 hsl 60 15 0.5 100 0 1 \$0-decimation_snd \$0-decimation_rcv
decimation 0 8 0 10 -262144 -1 -1 2400 1;
#X floatatom 241 79 5 0 100 1 % - -;
#X obj 244 60 hsl 60 15 0.5 100 0 1 \$0-rounding_snd \$0-rounding_rcv
rounding 6 8 0 10 -262144 -1 -1 1800 1;
#X floatatom 313 79 5 0 0 1 % - -;
#X obj 316 60 hsl 60 15 0 100 0 1 \$0-Mix_decimator_snd \$0-Mix_decimator_rcv
Mix 21 8 0 10 -262144 -1 -1 2500 1;
#X obj 313 133 f2s~;
#X obj 36 287 xfade~;
#X obj 313 108 rescale 0 100 -1 1;
#X obj 36 216 *~ 0.5;
#X obj 105 216 *~ 0.5;
#N canvas 362 138 450 300 (subpatch) 0;
#X obj 14 18 inlet;
#X msg 14 40 set \$1;
#X obj 14 62 outlet;
#X connect 0 0 1 0;
#X connect 1 0 2 0;
#X restore 313 37 pd;
#N canvas 362 138 450 300 (subpatch) 0;
#X obj 14 18 inlet;
#X msg 14 40 set \$1;
#X obj 14 62 outlet;
#X connect 0 0 1 0;
#X connect 1 0 2 0;
#X restore 241 37 pd;
#N canvas 362 138 450 300 (subpatch) 0;
#X obj 14 18 inlet;
#X msg 14 40 set \$1;
#X obj 14 62 outlet;
#X connect 0 0 1 0;
#X connect 1 0 2 0;
#X restore 170 37 pd;
#X text 175 37 Decimator;
#X obj 143 7 inlet;
#X obj 223 7 inlet;
#X obj 293 7 inlet;
#X obj 70 17 inlet~;
#X obj 179 327 outlet~;
#X obj 257 191 crusher~;
#X obj 188 282 xfade~;
#X obj 188 211 *~ 0.5;
#X obj 257 211 *~ 0.5;
#X connect 0 0 12 0;
#X connect 0 0 2 0;
#X connect 2 0 13 0;
#X connect 3 0 4 0;
#X connect 4 0 16 0;
#X connect 4 0 2 2;
#X connect 4 0 23 2;
#X connect 5 0 15 0;
#X connect 6 0 15 0;
#X connect 6 0 2 1;
#X connect 6 0 23 1;
#X connect 7 0 14 0;
#X connect 8 0 14 0;
#X connect 8 0 11 0;
#X connect 9 0 10 2;
#X connect 9 0 24 2;
#X connect 10 0 1 0;
#X connect 11 0 9 0;
#X connect 12 0 10 0;
#X connect 13 0 10 1;
#X connect 14 0 7 0;
#X connect 15 0 5 0;
#X connect 16 0 3 0;
#X connect 18 0 4 0;
#X connect 19 0 6 0;
#X connect 20 0 8 0;
#X connect 21 0 25 0;
#X connect 21 0 23 0;
#X connect 23 0 26 0;
#X connect 24 0 22 0;
#X connect 25 0 24 0;
#X connect 26 0 24 1;
#X coords 0 -1 1 1 240 75 2 155 30;
