#N canvas 579 45 508 381 10;
#X floatatom 170 80 5 0.1 500 1 msecs - -;
#X obj 173 61 hsl 60 15 0.1 500 0 1 empty \$0-delay_rcv delay 14 8
0 10 -262144 -1 -1 2000 1;
#X floatatom 241 79 5 0 100 1 - - -;
#X obj 244 60 hsl 60 15 0.1 50 0 1 empty \$0-decay_rcv decay 14 8 0
10 -262144 -1 -1 3900 1;
#X floatatom 313 79 5 0 0 1 % - -;
#X obj 316 60 hsl 60 15 0 100 0 1 empty \$0-Mix_delay_rcv Mix 21 8
0 10 -262144 -1 -1 2400 1;
#X obj 313 133 f2s~;
#X obj 56 237 xfade~;
#X obj 313 108 rescale 0 100 -1 1;
#X obj 22 23 inlet~;
#X obj 24 317 outlet~;
#X obj 92 182 fbdelay~;
#X obj 241 120 * 44;
#X text 212 225 decay máx: 2200 ms;
#N canvas 362 138 450 300 (subpatch) 0;
#X obj 14 18 inlet;
#X msg 14 40 set \$1;
#X obj 14 62 outlet;
#X connect 0 0 1 0;
#X connect 1 0 2 0;
#X restore 170 38 pd;
#N canvas 362 138 450 300 (subpatch) 0;
#X obj 14 18 inlet;
#X msg 14 40 set \$1;
#X obj 14 62 outlet;
#X connect 0 0 1 0;
#X connect 1 0 2 0;
#X restore 241 37 pd;
#N canvas 362 138 450 300 (subpatch) 0;
#X obj 14 18 inlet;
#X msg 14 40 set \$1;
#X obj 14 62 outlet;
#X connect 0 0 1 0;
#X connect 1 0 2 0;
#X restore 313 37 pd;
#X connect 0 0 11 1;
#X connect 0 0 1 0;
#X connect 1 0 14 0;
#X connect 2 0 12 0;
#X connect 2 0 3 0;
#X connect 3 0 15 0;
#X connect 4 0 8 0;
#X connect 4 0 5 0;
#X connect 5 0 16 0;
#X connect 6 0 7 2;
#X connect 7 0 10 0;
#X connect 8 0 6 0;
#X connect 9 0 7 0;
#X connect 9 0 11 0;
#X connect 11 0 7 1;
#X connect 12 0 11 2;
#X connect 14 0 0 0;
#X connect 15 0 2 0;
#X connect 16 0 4 0;
#X coords 0 -1 1 1 240 75 1 155 30;
