#N canvas 579 45 508 381 10;
#X floatatom 170 80 5 0.1 500 1 - - -;
#X obj 173 61 hsl 60 15 0.1 500 0 1 empty empty delay 14 8 0 10 -262144
-1 -1 3300 1;
#X floatatom 241 79 5 0 100 1 - - -;
#X obj 244 60 hsl 60 15 0.1 50 0 1 \$0-decay_snd \$0-decay_rcv decay
14 8 0 10 -262144 -1 -1 0 1;
#X floatatom 313 79 5 0 0 1 - - -;
#X obj 316 60 hsl 60 15 0 100 0 1 \$0-Mix_delay_snd \$0-Mix_delay_rcv
Mix 21 8 0 10 -262144 -1 -1 3900 1;
#X obj 313 133 f2s~;
#X obj 22 237 xfade~;
#X obj 313 108 rescale 0 100 -1 1;
#X obj 22 23 inlet~;
#X obj 22 317 outlet~;
#X obj 58 182 fbdelay~;
#X obj 241 120 * 44;
#X text 212 225 decay máx: 2200 ms;
#N canvas 362 138 450 300 (subpatch) 0;
#X obj 14 18 inlet;
#X msg 14 40 set \$1;
#X obj 14 62 outlet;
#X connect 0 0 1 0;
#X connect 1 0 2 0;
#X restore 170 38 pd;
#N canvas 362 138 450 300 (subpatch) 0;
#X obj 14 18 inlet;
#X msg 14 40 set \$1;
#X obj 14 62 outlet;
#X connect 0 0 1 0;
#X connect 1 0 2 0;
#X restore 241 37 pd;
#N canvas 362 138 450 300 (subpatch) 0;
#X obj 14 18 inlet;
#X msg 14 40 set \$1;
#X obj 14 62 outlet;
#X connect 0 0 1 0;
#X connect 1 0 2 0;
#X restore 313 37 pd;
#X obj 146 11 inlet;
#X obj 226 11 inlet;
#X obj 296 11 inlet;
#X text 182 35 Delay;
#X text 203 81 msecs;
#X text 347 80 %;
#X obj 126 237 xfade~;
#X obj 92 23 inlet~;
#X obj 94 317 outlet~;
#X obj 162 182 fbdelay~;
#X connect 0 0 1 0;
#X connect 1 0 14 0;
#X connect 1 0 11 1;
#X connect 1 0 26 1;
#X connect 2 0 3 0;
#X connect 3 0 15 0;
#X connect 3 0 12 0;
#X connect 4 0 5 0;
#X connect 5 0 16 0;
#X connect 5 0 8 0;
#X connect 6 0 7 2;
#X connect 6 0 23 2;
#X connect 7 0 10 0;
#X connect 8 0 6 0;
#X connect 9 0 7 0;
#X connect 9 0 11 0;
#X connect 11 0 7 1;
#X connect 12 0 11 2;
#X connect 12 0 26 2;
#X connect 14 0 0 0;
#X connect 15 0 2 0;
#X connect 16 0 4 0;
#X connect 17 0 1 0;
#X connect 18 0 3 0;
#X connect 19 0 5 0;
#X connect 23 0 25 0;
#X connect 24 0 23 0;
#X connect 24 0 26 0;
#X connect 26 0 23 1;
#X coords 0 -1 1 1 240 75 2 155 30;
