#N canvas 571 86 675 434 10;
#X obj 45 20 inlet~;
#X obj 54 399 outlet~;
#X obj 66 178 rm~;
#X floatatom 253 149 5 0.5 8000 1 Hz - -;
#X obj 256 132 hsl 60 15 0.5 8000 0 0 \$0-freq_1_snd \$0-freq_1_rcv
freq_1 11 8 0 10 -262144 -1 -1 0 1;
#X obj 120 178 rm~;
#X floatatom 396 149 5 0.5 8000 1 Hz - -;
#X obj 399 132 hsl 60 15 0.5 8000 0 0 \$0-freq_2_snd \$0-freq_2_rcv
freq_2 11 8 0 10 -262144 -1 -1 0 1;
#X floatatom 325 151 5 0 100 1 % - -;
#X obj 328 132 hsl 60 15 0 100 0 1 \$0-balance_snd \$0-balance_rcv
balance 8 8 0 10 -262144 -1 -1 1000 1;
#X obj 92 257 xfade~;
#X obj 325 205 f2s~;
#X obj 70 206 *~ 0.25;
#X obj 120 207 *~ 0.25;
#X floatatom 475 151 5 0 0 1 % - -;
#X obj 478 132 hsl 60 15 0 100 0 1 \$0-Mix_ring_mod_snd \$0-Mix_ring_mod_rcv
Mix 21 8 0 10 -262144 -1 -1 700 1;
#X obj 475 205 f2s~;
#X obj 55 337 xfade~;
#X obj 325 185 rescale 0 100 -1 1;
#X obj 475 180 rescale 0 100 -1 1;
#X obj 45 266 *~ 0.5;
#N canvas 362 138 450 300 (subpatch) 0;
#X obj 14 18 inlet;
#X msg 14 40 set \$1;
#X obj 14 62 outlet;
#X connect 0 0 1 0;
#X connect 1 0 2 0;
#X restore 253 96 pd;
#N canvas 362 138 450 300 (subpatch) 0;
#X obj 14 18 inlet;
#X msg 14 40 set \$1;
#X obj 14 62 outlet;
#X connect 0 0 1 0;
#X connect 1 0 2 0;
#X restore 325 95 pd;
#N canvas 362 138 450 300 (subpatch) 0;
#X obj 14 18 inlet;
#X msg 14 40 set \$1;
#X obj 14 62 outlet;
#X connect 0 0 1 0;
#X connect 1 0 2 0;
#X restore 396 97 pd;
#N canvas 362 138 450 300 (subpatch) 0;
#X obj 14 18 inlet;
#X msg 14 40 set \$1;
#X obj 14 62 outlet;
#X connect 0 0 1 0;
#X connect 1 0 2 0;
#X restore 475 95 pd;
#X obj 221 73 inlet;
#X obj 301 73 inlet;
#X obj 371 73 inlet;
#X obj 451 73 inlet;
#X text 273 105 Ring Modulator;
#X obj 154 22 inlet~;
#X obj 175 405 outlet~;
#X obj 187 184 rm~;
#X obj 241 184 rm~;
#X obj 213 263 xfade~;
#X obj 191 212 *~ 0.25;
#X obj 241 213 *~ 0.25;
#X obj 176 343 xfade~;
#X obj 166 272 *~ 0.5;
#X connect 0 0 2 0;
#X connect 0 0 5 0;
#X connect 0 0 20 0;
#X connect 2 0 12 0;
#X connect 3 0 4 0;
#X connect 4 0 21 0;
#X connect 4 0 2 1;
#X connect 4 0 32 1;
#X connect 5 0 13 0;
#X connect 6 0 7 0;
#X connect 7 0 23 0;
#X connect 7 0 5 1;
#X connect 7 0 33 1;
#X connect 8 0 9 0;
#X connect 9 0 22 0;
#X connect 9 0 18 0;
#X connect 10 0 17 1;
#X connect 11 0 10 2;
#X connect 11 0 34 2;
#X connect 12 0 10 0;
#X connect 13 0 10 1;
#X connect 14 0 15 0;
#X connect 15 0 24 0;
#X connect 15 0 19 0;
#X connect 16 0 17 2;
#X connect 16 0 37 2;
#X connect 17 0 1 0;
#X connect 18 0 11 0;
#X connect 19 0 16 0;
#X connect 20 0 17 0;
#X connect 21 0 3 0;
#X connect 22 0 8 0;
#X connect 23 0 6 0;
#X connect 24 0 14 0;
#X connect 25 0 4 0;
#X connect 26 0 9 0;
#X connect 27 0 7 0;
#X connect 28 0 15 0;
#X connect 30 0 38 0;
#X connect 30 0 33 0;
#X connect 30 0 32 0;
#X connect 32 0 35 0;
#X connect 33 0 36 0;
#X connect 34 0 37 1;
#X connect 35 0 34 0;
#X connect 36 0 34 1;
#X connect 37 0 31 0;
#X connect 38 0 37 0;
#X coords 0 -1 1 1 320 75 2 240 100;
